<svg xmlns="http://www.w3.org/2000/svg" viewBox="0 0 1024 1024" role="img" aria-labelledby="title desc">
  <title id="title">Orbit Key</title>
  <desc id="desc">Printable Web AR marker for target one.</desc>
  <rect width="1024" height="1024" fill="#f9fbff"/>
  <rect x="32" y="32" width="960" height="960" fill="none" stroke="#101014" stroke-width="32"/>
  <rect x="92" y="92" width="840" height="840" fill="#eef7ff" stroke="#101014" stroke-width="10"/>
  <circle cx="512" cy="470" r="278" fill="#101014"/>
  <circle cx="512" cy="470" r="218" fill="#fbfbf5"/>
  <circle cx="512" cy="470" r="132" fill="#ff4f8b"/>
  <circle cx="512" cy="470" r="58" fill="#101014"/>
  <path d="M242 624c112-190 326-276 560-252" fill="none" stroke="#78ffb6" stroke-width="32" stroke-linecap="round"/>
  <path d="M218 344c174 86 362 252 530 496" fill="none" stroke="#101014" stroke-width="22" stroke-linecap="round" stroke-dasharray="42 26"/>
  <rect x="160" y="162" width="116" height="116" fill="#101014"/>
  <rect x="748" y="166" width="88" height="88" fill="#78ffb6" stroke="#101014" stroke-width="14"/>
  <rect x="148" y="728" width="96" height="96" fill="#ff4f8b" stroke="#101014" stroke-width="14"/>
  <rect x="796" y="690" width="72" height="72" fill="#101014"/>
  <path d="M694 596h92v50h-92zm-84 0h48v50h-48zm-84 0h48v50h-48z" fill="#101014"/>
  <path d="M318 246h56v56h-56zm66 66h34v34h-34zm-82 82h86v30h-86z" fill="#101014"/>
  <path d="M704 284 748 240l44 44-44 44 44 44-44 44-44-44-44 44-44-44 44-44-44-44 44-44 44 44Z" fill="#ff4f8b"/>
  <text x="512" y="900" text-anchor="middle" font-family="Arial, Helvetica, sans-serif" font-size="54" font-weight="800" letter-spacing="6" fill="#101014">ORBIT KEY</text>
  <text x="512" y="950" text-anchor="middle" font-family="Arial, Helvetica, sans-serif" font-size="28" font-weight="700" letter-spacing="4" fill="#101014">MARK-AR TARGET 02</text>
</svg>
